<svg xmlns="http://www.w3.org/2000/svg" width="85.333" height="85.333" version="1.0" viewBox="0 0 64 64"><path d="M27.5 3.1c-2.3 1-6.2 1.9-9.2 1.9-2.9 0-5.3.1-5.3.3 0 .1-.9 6.5-2 14.2-1.1 7.7-2 14.8-2 15.8 0 1.9 3.2 5.6 6.5 7.4 1.8 1.1 1.7 1.4-1.9 6.8l-3.7 5.7 4.7-.4 4.8-.3 1.7 4.5 1.6 4.4 3.2-5.4c1.7-3 3.1-5.8 3.1-6.3 0-.4 1.4-.7 3-.7 1.7 0 3 .3 3 .7 0 .5 1.4 3.3 3.1 6.3l3.2 5.4 1.6-4.4 1.7-4.5 4.8.3 4.7.4-3.7-5.7c-3.6-5.4-3.7-5.7-1.9-6.8 3.3-1.8 6.5-5.5 6.5-7.4 0-1-.9-8.1-2-15.8-1.1-7.7-2-14.1-2-14.2 0-.2-2.4-.3-5.2-.3-3.1 0-7.1-.9-9.7-2-2.4-1.1-4.4-2-4.5-1.9 0 0-1.9.9-4.1 2zm8.8 2.4c2 .8 5.6 1.5 8.1 1.5 5.3 0 4.9-.9 7.2 16.4l1.7 13-2.7 2.2c-5.4 4.7-15.1 9.8-18.6 9.8-3.5 0-13.2-5.1-18.6-9.8l-2.7-2.2 1.7-13C14.7 6 14.3 7 19.8 7c2.6-.1 6.1-.7 7.7-1.5 3.9-1.8 4.6-1.8 8.8 0zM25.8 53.8c-1.2 2-2.3 3.9-2.5 4.1-.1.2-.8-1-1.4-2.8-1-2.9-1.5-3.2-4-2.9-3.4.5-3.6-.4-.9-4.2l2-2.8 4.4 2.4 4.5 2.5-2.1 3.7zM49 51.6c0 .6-1.2.9-2.9.6-2.5-.3-3 0-4 3l-1.2 3.3-2.1-4c-1.2-2.2-2.1-4.2-2-4.4 0-.2 1.8-1.4 3.9-2.6l3.8-2.2 2.2 2.6C48 49.3 49 51 49 51.6z"/><path d="M29 7.2c-1.4.5-4.7 1.3-7.5 1.7l-5 .6-1.8 13-1.9 13 3 2.5c1.7 1.4 6 4.1 9.6 6l6.6 3.5 6.6-3.5c3.6-1.9 7.9-4.6 9.6-6l3-2.5-1.9-13-1.8-13-5.1-.6c-2.8-.4-6-1.1-7.2-1.8-2.4-1.3-2.9-1.3-6.2.1zm6.5 2.3c2.2.8 5.5 1.4 7.3 1.5 2 0 3.2.5 3.2 1.3s.7 6 1.6 11.8l1.5 10.4-3 2.5c-1.6 1.4-5.5 3.8-8.5 5.4l-5.5 3-5.3-2.9c-2.9-1.5-6.8-3.9-8.6-5.2-3-2.2-3.3-2.9-2.8-6.2.3-2 1.1-7.3 1.7-11.9l1.1-8.2 3.2-.1c2.4 0 10.1-2.1 10.1-2.8 0 0 1.8.6 4 1.4z"/><path d="M25.5 19C23 23.9 21 29.1 21 30.5 21 36.3 26.5 42 32 42s11-5.7 11-11.5c0-1.4-2-6.6-4.5-11.5-6-11.9-7-11.9-13 0zm11.3 1.3c2.3 4.5 4.2 9.5 4.2 11 0 4-4.9 8.7-9 8.7s-9-4.7-9-8.7c0-2.5 7.8-19.3 9-19.3.3 0 2.4 3.7 4.8 8.3z"/><path d="M29 24c0 1.3-.7 2-2 2-1.6 0-2 .7-2 3s.4 3 2 3c1.3 0 2 .7 2 2 0 1.6.7 2 3 2s3-.4 3-2c0-1.3.7-2 2-2 1.6 0 2-.7 2-3s-.4-3-2-3c-1.3 0-2-.7-2-2 0-1.6-.7-2-3-2s-3 .4-3 2zm4 2c0 1.3.7 2 2 2 1.1 0 2 .4 2 1 0 .5-.9 1-2 1-1.3 0-2 .7-2 2 0 1.1-.4 2-1 2-.5 0-1-.9-1-2 0-1.3-.7-2-2-2-1.1 0-2-.5-2-1 0-.6.9-1 2-1 1.3 0 2-.7 2-2 0-1.1.5-2 1-2 .6 0 1 .9 1 2z"/></svg>
