<svg xmlns="http://www.w3.org/2000/svg" width="85.333" height="85.333" version="1.0" viewBox="0 0 64 64"><path d="M30.4 1.3c-1 2.7 0 7.2 1.6 7.2 1.1 0 1.5-1.1 1.5-3.9 0-4-2-6.1-3.1-3.3zM14 4.7c0 1.5 4 7.3 4.9 7.3 1.9 0 2-1.7.1-4.8-1.8-2.8-5-4.4-5-2.5zM45 7.2c-1.9 3.1-1.8 4.8.1 4.8.9 0 4.9-5.8 4.9-7.3 0-1.9-3.2-.3-5 2.5zM2.6 14.7c-1.4 1.4-.4 3 2.9 4.6 3.3 1.6 5.4.9 4-1.3-.9-1.5-6.2-4-6.9-3.3zM57.2 16c-3.1 1.9-3.8 3.1-2.6 4.3.9.9 7.4-2.5 7.4-3.9 0-2.2-1.6-2.3-4.8-.4zM16 18.7c-3 2.7-3.2 3.5-5.2 18-2 14.8-2.1 15.1-4.7 15.6-2 .4-3 1.6-4.3 5.2-1 2.6-1.5 5.1-1.2 5.6.7 1.2 62.1 1.2 62.8 0 .3-.5-.2-3-1.2-5.6-1.3-3.6-2.3-4.8-4.3-5.2-2.6-.5-2.7-.8-4.7-15.6-2-14.5-2.2-15.3-5.2-18C45 16 44.7 16 32 16s-13 0-16 2.7zm29.7 2.6c1.6 1.3 2.4 4.6 3.7 14.5 1 7 2 13.5 2.2 14.4.5 1.7-.9 1.8-19.6 1.8-18.7 0-20.1-.1-19.6-1.8.2-.9 1.2-7.3 2.1-14.2 1-6.9 2.2-13.1 2.8-13.9 2.1-2.5 5.2-3.1 15.8-2.8 8.6.2 11.1.5 12.6 2zM58 56.4c0 .2.3 1.1.6 2 .6 1.4-2.2 1.6-26.5 1.6C17.2 60 5 59.8 5 59.6s.3-1.1.6-2c.5-1.4 3.8-1.6 26.5-1.6 14.2 0 25.9.2 25.9.4z"/><path d="M29.4 30.6c.3 2.6.6 5.7.6 7 0 1.7.6 2.4 2 2.4 1.6 0 2-.7 2-3.3 0-1.7.3-4.9.6-7 .7-3.6.6-3.7-2.6-3.7h-3.3l.7 4.6zM29.4 44.1c-.3.6.1 1.8 1 2.7 1.5 1.5 1.7 1.5 3.2 0 .9-.9 1.3-2.1 1-2.7-.9-1.4-4.3-1.4-5.2 0z"/></svg>
