<svg xmlns="http://www.w3.org/2000/svg" width="85.333" height="85.333" version="1.0" viewBox="0 0 64 64"><path d="M23.4 3.8c-.5.4-1.8 1.8-2.7 3.2-.9 1.3-3.4 2.9-5.5 3.5-3.6 1-3.7 1.3-4.2 6.2-.3 2.8-1.3 6-2.3 7-2.3 2.6-2.2 5.6.3 7.8 1.4 1.3 2 3.1 2 6.1 0 2.4.5 4.6 1 4.9.7.4-.1 2.7-2 6.1-3.5 5.9-3.1 6.4 3.7 4.5 3.1-.9 3.1-.8 4.2 3.5.6 2.4 1.5 4.4 1.9 4.4.4 0 1.9-2.2 3.5-4.9 2-3.7 3.5-5.1 5.7-5.6 5.6-1.2 8.7.2 12.1 5.8l3.2 5.2 1.3-3c.7-1.7 1.3-3.8 1.4-4.9 0-1.3.5-1.6 1.8-1.1.9.4 3.2.9 5.1 1.2l3.4.6-3.2-5.6c-1.9-3.4-2.8-5.8-2.1-6.2.5-.3 1-2.5 1-4.9 0-3 .6-4.8 2-6.1 2.5-2.3 2.5-4.9.1-8.4-1.1-1.5-2.1-4.7-2.3-7.1-.3-4.2-.5-4.5-4.1-5.5-2.4-.7-4.5-2.1-5.5-3.8-2.1-3.4-3.8-4-7.9-2.6-2.4.8-4.2.8-6.5 0-3.6-1.3-4-1.3-5.4-.3zM32 6.3c1.9 0 4.5-.3 5.7-.7 1.8-.7 2.4-.2 3.7 2.3 1.1 2.1 2.8 3.4 5.6 4.2 3.8 1.2 4 1.4 4 5.4 0 2.5.6 4.8 1.5 5.5 2.4 2 2.8 5 .9 7.1-1 1.1-2.1 4.1-2.4 6.6-.4 4.2-.8 4.7-3.8 5.7-1.8.6-4.4 2.6-5.7 4.3-2.4 2.9-2.7 3-6 2-2.5-.7-4.5-.7-7 0-3.3 1-3.6.9-6-2-1.3-1.7-3.9-3.7-5.7-4.3-3-1-3.4-1.5-3.8-5.7-.3-2.5-1.4-5.5-2.4-6.6-1.9-2.1-1.5-5.1.9-7.1.9-.7 1.5-3 1.5-5.5 0-4 .2-4.2 4-5.4 2.8-.8 4.5-2.1 5.6-4.2 1.3-2.5 1.9-3 3.7-2.3 1.2.4 3.8.7 5.7.7zM20.1 47.1c3.3 3.5 3.4 4.4 1.4 7.9l-1.4 2.5-.7-3.3c-.8-3.9-2.1-4.7-5.7-3.3-3.2 1.2-3.3.6-.7-3.7 2.4-4 3.4-4 7.1-.1zm30.9.1c2.6 4.3 2.5 4.9-.7 3.7-3.6-1.4-4.9-.6-5.7 3.3l-.7 3.3-1.4-2.5c-2-3.5-1.9-4.4 1.4-7.9 3.7-3.9 4.7-3.9 7.1.1z"/><path d="M24 14.3c-10 6.7-9.7 20.6.6 26.4 5 2.9 9.8 2.9 14.8 0C53.1 33 47.7 12 32 12c-3.2 0-5.8.7-8 2.3zm17.7 4.1c6.6 7.2 3.6 18.9-5.7 21.7-8.7 2.6-17.1-3.5-17.2-12.5-.2-8.4 6.1-14 14.6-13.3 4.2.4 5.5 1 8.3 4.1z"/><path d="M35.2 26.3 30 31.4l-3.4-3.3c-1.8-1.8-3.6-2.9-3.9-2.3-.4.5 1.1 2.6 3.2 4.6l3.9 3.8 4.7-4.3c4.4-4.1 7.1-7.6 6.3-8.4-.2-.3-2.7 1.9-5.6 4.8z"/></svg>
